<?xml version="1.0" encoding="utf-8"?>
<!-- Generator: Adobe Illustrator 24.0.3, SVG Export Plug-In . SVG Version: 6.00 Build 0)  -->
<svg version="1.1" id="Calque_1" xmlns="http://www.w3.org/2000/svg" xmlns:xlink="http://www.w3.org/1999/xlink" x="0px" y="0px"
	 width="50px" height="40px" viewBox="0 0 50 40" style="enable-background:new 0 0 50 40;" xml:space="preserve">
<style type="text/css">
	.st0{stroke:#000000;stroke-width:0.2835;stroke-miterlimit:10;}
</style>
<g>
	<g>
		<path class="st0" d="M28,39.4c-0.3,0-0.7,0-1,0H12.5c-1.7,0-2.9-1.4-2.9-2.9v-33c0-1.7,1.4-2.9,2.9-2.9h9.7
			c3.1,0,7.9-0.2,10.8,2.8c1.8,1.7,2.6,4.3,2.6,7.4v1c1.9,0.7,3.6,1.8,4.8,3.4c1.8,2.4,1.8,5,1.8,7.9v0.7V27
			C41.5,38.7,33.2,39.4,28,39.4z M12.5,2.7c-0.5,0-0.8,0.3-0.8,0.8v33c0,0.5,0.3,0.8,0.8,0.8h14.6c5.1,0,12.1,0.2,12.9-10.3v-3.3V23
			c0-2.6,0-4.6-1.4-6.6c-0.8-1-1.8-1.8-2.9-2.4V22c0,1.4-1.2,2.4-2.4,2.4H19.7c-1.4,0-2.4-1.2-2.4-2.4v-8.2c0-1.7,1.4-2.9,2.9-2.9
			h10.2c1.2,0,2.1,0,3.1,0.2v-0.3c0-2.6-0.7-4.5-1.9-5.7c-2.3-2.4-6.4-2.3-9.3-2.3L12.5,2.7L12.5,2.7z M20.2,13
			c-0.5,0-0.8,0.3-0.8,0.8v8.2c0,0.2,0,0.2,0.2,0.2h13.6c0.2,0,0.2,0,0.2-0.2v-5.1l0,0v-3.7c-1-0.2-1.9-0.3-3.1-0.3L20.2,13L20.2,13
			z"/>
	</g>
</g>
</svg>
